# AST/ASF file generated using VICON BodyLanguage
# -----------------------------------------------
:version 1.10
:name VICON
:units
  mass 1.0
  length 0.45
  angle deg
:documentation
   .ast/.asf automatically generated from VICON data using
   VICON BodyBuilder and BodyLanguage model FoxedUp or BRILLIANT.MOD
:root
   order TX TY TZ RX RY RZ
   axis XYZ
   position 0 0 0  
   orientation 0 0 0 
:bonedata
  begin
     id 1 
     name lhipjoint
     direction 0.692814 -0.645514 0.321437 
     length 2.38754 
     axis 0 0 0  XYZ
  end
  begin
     id 2 
     name lfemur
     direction 0.34202 -0.939693 0  
     length 6.41921  
     axis 0 0 20  XYZ
    dof rx ry rz
    limits (-160.0 20.0)
           (-70.0 70.0)
           (-60.0 70.0)
  end
  begin
     id 3 
     name ltibia
     direction 0.34202 -0.939693 0   
     length 6.98247   
     axis 0 0 20   XYZ
    dof rx
    limits (-10.0 170.0)
  end
  begin
     id 4 
     name lfoot
     direction 0.0947186 -0.260237 0.960888   
     length 1.83034   
     axis -90 7.62852e-016 20   XYZ
    dof rx rz
    limits (-45.0 90.0)
           (-70.0 20.0)
  end
  begin
     id 5 
     name ltoes
     direction 1.53538e-011 -4.21952e-011 1   
     length 0.920499   
     axis -90 7.62852e-016 20   XYZ
    dof rx
    limits (-90.0 20.0)
  end
  begin
     id 6 
     name rhipjoint
     direction -0.631686 -0.693949 0.345555   
     length 2.2209  
     axis 0 0 0  XYZ 
  end
  begin
     id 7 
     name rfemur
     direction -0.34202 -0.939693 0   
     length 6.49542   
     axis 0 0 -20   XYZ
    dof rx ry rz
    limits (-160.0 20.0)
           (-70.0 70.0)
           (-70.0 60.0)
  end
  begin
     id 8 
     name rtibia
     direction -0.34202 -0.939693 0   
     length 7.21712   
     axis 0 0 -20   XYZ
    dof rx
    limits (-10.0 170.0)
 end
 begin
     id 9 
     name rfoot
     direction -0.0825378 -0.226771 0.970444   
     length 1.89724  
     axis -90 -7.62852e-016 -20   XYZ
    dof rx rz
    limits (-45.0 90.0)
           (-20.0 70.0)
  end
  begin
     id 10 
     name rtoes
     direction -1.53515e-011 -4.22016e-011 1   
     length 0.955868   
     axis -90 -7.62852e-016 -20   XYZ
    dof rx
    limits (-90.0 20.0)
  end
  begin
     id 11 
     name lowerback
     direction -0.0104711 0.984802 -0.173368   
     length 1.84931   
     axis 0 0 0   XYZ
    dof rx ry rz
    limits (-20.0 45.0)
           (-30.0 30.0)
           (-30.0 30.0)
  end
  begin
     id 12 
     name upperback
     direction -0.00286433 0.999996 -0.000382853   
     length 1.85768   
     axis 0 0 0   XYZ
    dof rx ry rz
    limits (-20.0 45.0)
           (-30.0 30.0)
           (-30.0 30.0)
  end
  begin
     id 13 
     name thorax
     direction 0.00167534 0.996793 0.0800069   
     length 1.92   
     axis 0 0 0   XYZ
    dof rx ry rz
    limits (-20.0 45.0)
           (-30.0 30.0)
           (-30.0 30.0)
  end
  begin
     id 14 
     name lowerneck
     direction -0.0672491 0.995415 0.068018   
     length 1.58923   
     axis 0 0 0   XYZ
    dof rx ry rz
    limits (-20.0 45.0)
           (-30.0 30.0)
           (-30.0 30.0)
  end
  begin
     id 15 
     name upperneck
     direction 0.0958019 0.982476 -0.159884   
     length 1.60189   
     axis 0 0 0   XYZ
    dof rx ry rz
    limits (-20.0 45.0)
           (-30.0 30.0)
           (-30.0 30.0)
  end
  begin
     id 16
     name head
     direction 0.032989 0.997338 -0.0650226  
     length 1.61681  
     axis 0 0 0   XYZ
    dof rx ry rz
    limits (-20.0 45.0)
           (-30.0 30.0)
           (-30.0 30.0)
  end
  begin
     id 17 
     name lclavicle
     direction 0.954279 0.298875 -0.00496069  
     length 2.99449  
     axis 0 0 0   XYZ
    dof ry rz
    limits (-20.0 10.0)
           (0.0 20.0)
  end
  begin
     id 18 
     name lhumerus
     direction 1 -4.48985e-011 -4.2057e-027   
     length 4.79185   
     axis 180 -30 -90   XYZ
    dof rx ry rz
    limits (-60.0 90.0)
           (-90.0 90.0)
           (-90.0 90.0)
  end
  begin
     id 19
     name lradius
     direction 1 -4.48945e-011 1.15441e-028   
     length 2.65553   
     axis 180 -30 -90   XYZ
    dof rx
    limits (-10.0 170.0)
  end
  begin
     id 20
     name lwrist
     direction 1 -4.4899e-011 4.8894e-028   
     length 1.32777   
     axis -2.56392e-016 90 90   XYZ
    dof ry
    limits (-180.0 0.0)
 end
  begin
     id 21 
     name lhand
     direction 1 -4.48908e-011 9.7788e-028   
     length 0.743904   
     axis -6.23971e-016 90 90   XYZ
    dof rx rz
    limits (-90.0 90.0)
           (-45.0 45.0)
  end
  begin
     id 22 
     name lfingers
     direction 1 -4.49068e-011 1.95576e-027   
     length 0.599754   
     axis -1.24794e-015 90 90   XYZ
    dof rx
    limits (0.0 90.0)
  end
  begin
     id 23
     name lthumb
     direction 0.707107 -6.34883e-011 0.707107   
     length 0.861131   
     axis -90 45 2.85299e-015   XYZ
    dof rx rz
    limits (-45.0 45.0)
           (-45.0 45.0)
  end
  begin
     id 24 
     name rclavicle
     direction -0.957921 0.286916 0.00811568   
     length 3.06817  
     axis 0 0 0   XYZ 
    dof ry rz
    limits (-10.0 20.0)
           (-20.0 0.0)
  end
  begin
     id 25 
     name rhumerus
     direction -1 -4.48971e-011 -3.07942e-027  
     length 4.77254   
     axis 180 30 90   XYZ
    dof rx ry rz
    limits (-90.0 60.0)
           (-90.0 90.0)
           (-90.0 90.0)
  end
  begin
     id 26 
     name rradius
     direction -1 -4.48957e-011 -9.6815e-028   
     length 2.75995   
     axis 180 30 90   XYZ
    dof rx
    limits (-10.0 170.0)
  end
  begin
     id 27 
     name rwrist
     direction -1 -4.48979e-011 4.8894e-028   
     length 1.37997   
     axis -2.56392e-016 -90 -90   XYZ
    dof ry
    limits (-180.0 0.0)
  end
  begin
     id 28
     name rhand
     direction -1 -4.48906e-011 9.7788e-028   
     length 0.701619   
     axis -6.23971e-016 -90 -90   XYZ
    dof rx rz
    limits (-90.0 90.0)
           (-45.0 45.0)
  end
  begin
     id 29
     name rfingers
     direction -1 -4.49018e-011 1.95576e-027   
     length 0.565663   
     axis -1.24794e-015 -90 -90   XYZ
    dof rx
    limits (0.0 90.0)
  end
  begin
     id 30
     name rthumb
     direction -0.707107 -6.34881e-011 0.707107   
     length 0.812183   
     axis -90 -45 -2.85299e-015   XYZ
    dof rx rz
    limits (-45.0 45.0)
           (-45.0 45.0)
  end
:hierarchy
  begin
    root lhipjoint rhipjoint lowerback
    lhipjoint lfemur
    lfemur ltibia
    ltibia lfoot
    lfoot ltoes
    rhipjoint rfemur
    rfemur rtibia
    rtibia rfoot
    rfoot rtoes
    lowerback upperback
    upperback thorax
    thorax lowerneck lclavicle rclavicle
    lowerneck upperneck
    upperneck head
    lclavicle lhumerus
    lhumerus lradius
    lradius lwrist
    lwrist lhand lthumb
    lhand lfingers
    rclavicle rhumerus
    rhumerus rradius
    rradius rwrist
    rwrist rhand rthumb
    rhand rfingers
  end

#!OML:ASF F:\VICON\USERDATA\INSTALL\rory3\rory3.ASF
:FULLY-SPECIFIED
:DEGREES
112
root 0.393739 16.1905 0.462417 5.48951 -1.97949 -0.0413248
lowerback 5.26546 0.107925 -4.72155
upperback 0.337005 -0.215014 -2.83999
thorax -2.60173 -0.0681333 -0.263806
lowerneck -9.20748 -13.5351 -15.9251
upperneck 19.7193 -19.2172 13.5625
head 10.7624 -8.95903 4.63279
rclavicle -5.56597e-015 9.54166e-015
rhumerus -97.3 50.3377 -133.473
rradius 87.3823
rwrist 40.7894
rhand -50.8116 61.6086
rfingers 7.12502
rthumb -23.3679 33.0072
lclavicle -5.56597e-015 9.54166e-015
lhumerus -98.2669 -45.6734 126.724
lradius 94.1024
lwrist -6.90676
lhand -44.7172 -23.7835
lfingers 7.12502
lthumb -17.5115 5.44783
rfemur -3.60487 10.6484 16.0988
rtibia 13.2788
rfoot -11.9079 -14.7547
rtoes -5.64915
lfemur 4.09805 -6.28607 -18.3205
ltibia 1.43125e-014
lfoot -6.54162 10.6464
ltoes -9.17157
113
root 0.393963 16.1905 0.463199 5.48937 -1.97366 -0.0419341
lowerback 5.27899 0.111089 -4.70097
upperback 0.338894 -0.209711 -2.81381
thorax -2.60747 -0.0655126 -0.248674
lowerneck -9.47699 -13.3427 -15.7756
upperneck 19.7193 -18.9277 13.5623
head 10.7483 -8.8027 4.65196
rclavicle -6.95746e-015 1.43125e-014
rhumerus -97.3158 50.283 -133.42
rradius 87.4288
rwrist 40.7898
rhand -51.4864 59.7134
rfingers 7.12502
rthumb -24.0151 31.1958
lclavicle -6.95746e-015 1.43125e-014
lhumerus -98.2822 -45.6841 126.773
lradius 94.0899
lwrist -6.89755
lhand -44.7161 -23.7773
lfingers 7.12502
lthumb -17.5104 5.45411
rfemur -3.61492 10.6442 16.0996
rtibia 13.2991
rfoot -11.91 -14.7789
rtoes -5.77408
lfemur 4.09766 -6.29185 -18.3205
ltibia -3.18055e-015
lfoot -6.53857 10.6574
ltoes -9.11219
114
root 0.393086 16.1914 0.463564 5.51278 -1.97265 -0.0661838
lowerback 5.30735 0.122677 -4.68159
upperback 0.310063 -0.195512 -2.77426
thorax -2.65351 -0.0573945 -0.21987
lowerneck -9.67239 -13.1372 -15.5922
upperneck 19.675 -18.6165 13.5099
head 10.6911 -8.64348 4.656
rclavicle 8.15017e-015 -2.22639e-014
rhumerus -97.343 50.2305 -133.372
rradius 87.4369
rwrist 40.8143
rhand -51.8126 58.2202
rfingers 7.12502
rthumb -24.3279 29.7441
lclavicle 8.15017e-015 -2.22639e-014
lhumerus -98.3067 -45.7108 126.817
lradius 94.1112
lwrist -6.84487
lhand -44.5643 -23.7609
lfingers 7.12502
lthumb -17.3644 5.48347
rfemur -3.65743 10.7427 16.1333
rtibia 13.3443
rfoot -12.0016 -14.8564
rtoes -5.32685
lfemur 4.06441 -6.28984 -18.2892
ltibia 3.18055e-015
lfoot -6.50477 10.6899
ltoes -9.24752
115
root 0.392728 16.1919 0.464214 5.54474 -2.02115 -0.0527684
lowerback 5.31793 0.144648 -4.68698
upperback 0.263068 -0.169395 -2.76059
thorax -2.7088 -0.042868 -0.204941
lowerneck -9.87504 -12.9249 -15.4058
upperneck 19.7067 -18.3037 13.4432
head 10.6617 -8.48295 4.65439
rclavicle 3.97569e-016 -9.54166e-015
rhumerus -97.4089 50.1254 -133.383
rradius 87.4465
rwrist 40.8319
rhand -51.8035 58.7022
rfingers 7.12502
rthumb -24.3192 30.225
lclavicle 3.97569e-016 -9.54166e-015
lhumerus -98.3239 -45.688 126.828
lradius 94.0978
lwrist -6.83245
lhand -44.4297 -23.7346
lfingers 7.12502
lthumb -17.2348 5.52109
rfemur -3.71748 10.7326 16.1127
rtibia 13.4021
rfoot -12.0564 -14.7803
rtoes -4.94004
lfemur 4.03502 -6.24182 -18.3006
ltibia -1.59028e-014
lfoot -6.51268 10.676
ltoes -9.29464
116
root 0.394006 16.1915 0.464951 5.56889 -2.05706 0.0529629
lowerback 5.32873 0.160538 -4.76026
upperback 0.228962 -0.155965 -2.78577
thorax -2.75054 -0.0343809 -0.191276
lowerneck -10.1111 -12.7302 -15.242
upperneck 19.7719 -18.0275 13.4307
head 10.6661 -8.33362 4.6662
rclavicle 3.57812e-015 -1.27222e-014
rhumerus -97.4717 50.0249 -133.388
rradius 87.4943
rwrist 40.8002
rhand -51.7229 59.4567
rfingers 7.12502
rthumb -24.2419 30.9691
lclavicle 3.57812e-015 -1.27222e-014
lhumerus -98.3397 -45.6588 126.805
lradius 94.0663
lwrist -6.86356
lhand -44.6381 -23.8542
lfingers 7.12502
lthumb -17.4354 5.38382
rfemur -3.80887 10.6358 15.9819
rtibia 13.5052
rfoot -12.0538 -14.7324
rtoes -5.30846
lfemur 4.01315 -6.21593 -18.424
ltibia 1.11319e-014
lfoot -6.51291 10.6957
ltoes -9.33248
117
root 0.394299 16.1921 0.465216 5.53944 -2.05123 0.0487752
lowerback 5.40667 0.157767 -4.74376
upperback 0.209519 -0.164258 -2.75407
thorax -2.81408 -0.0372415 -0.167386
lowerneck -10.3066 -12.5095 -15.0759
upperneck 19.7334 -17.6967 13.3842
head 10.6127 -8.16598 4.67723
rclavicle -1.68967e-014 -1.59028e-014
rhumerus -97.5466 49.9857 -133.378
rradius 87.5287
rwrist 40.7837
rhand -51.6764 59.5115
rfingers 7.12502
rthumb -24.1973 31.018
lclavicle -1.68967e-014 -1.59028e-014
lhumerus -98.3654 -45.5632 126.813
lradius 94.0769
lwrist -6.91214
lhand -44.8998 -23.8297
lfingers 7.12502
lthumb -17.6872 5.38588
rfemur -3.89012 10.6427 15.9875
rtibia 13.7171
rfoot -12.1811 -14.7319
rtoes -5.14185
lfemur 4.04322 -6.22216 -18.4237
ltibia 1.27222e-014
lfoot -6.52342 10.6971
ltoes -9.35386
118
root 0.394494 16.1911 0.469024 5.50266 -2.08861 0.156339
lowerback 5.42027 0.187698 -4.83254
upperback 0.21911 -0.130677 -2.76227
thorax -2.81277 -0.0195909 -0.128946
lowerneck -10.559 -12.3042 -14.905
upperneck 19.7015 -17.392 13.3711
head 10.5808 -8.00381 4.69086
rclavicle -3.57812e-015 3.81667e-014
rhumerus -97.418 49.9151 -133.194
rradius 87.5487
rwrist 40.6888
rhand -51.3456 59.5593
rfingers 7.12502
rthumb -23.8801 31.0239
lclavicle -3.57812e-015 3.81667e-014
lhumerus -98.3941 -45.577 126.871
lradius 94.0638
lwrist -6.91907
lhand -44.9654 -23.8265
lfingers 7.12502
lthumb -17.7504 5.38333
rfemur -3.96817 10.6794 15.8651
rtibia 13.9588
rfoot -12.307 -14.691
rtoes -5.07384
lfemur 4.10992 -6.19632 -18.5538
ltibia -9.54166e-015
lfoot -6.56275 10.6555
ltoes -9.36261
